HIERARCHY
ROOT Hip
{
	OFFSET	0.00  0.00  0.00 
	CHANNELS 6 Xposition Yposition Zposition Xrotation Zrotation Yrotation
	JOINT Abdomen
	{
		OFFSET	0.000000 0.000000 0.000000
		CHANNELS 3 Xrotation Zrotation Yrotation
		JOINT Chest
		{
			OFFSET	0.000000 5.018152 -1.882229
			CHANNELS 3 Xrotation Zrotation Yrotation
			JOINT neckDummy
			{
				OFFSET	0.000000 8.316447 0.784897
				CHANNELS 3 Xrotation Yrotation Zrotation
				JOINT Neck
				{
					OFFSET	0.000000 2.280413 -0.392801
					CHANNELS 3 Xrotation Zrotation Yrotation
					JOINT Head
					{
						OFFSET	0.000000 3.496879 0.529469
						CHANNELS 3 Xrotation Zrotation Yrotation
						End Site
						{
							OFFSET 0.000000 10.353750 0.000000
						}
					}
				}
			}
			JOINT Left Collar
			{
				OFFSET	0.599237 8.316447 0.784897
				CHANNELS 3 Yrotation Zrotation Xrotation
				JOINT Left Shoulder
				{
					OFFSET	6.421198 0.010146 -0.332128
					CHANNELS 3 Zrotation Yrotation Xrotation
					JOINT Left Forearm
					{
						OFFSET	10.552783 0.025574 0.125508
						CHANNELS 3 Yrotation Zrotation Xrotation
						JOINT Left Hand
						{
							OFFSET	11.035963 0.319619 0.041520
							CHANNELS 3 Zrotation Yrotation Xrotation
							End Site
							{
								OFFSET 10.353753 0.000000 0.000000
							}
						}
					}
				}
			}
			JOINT Right Collar
			{
				OFFSET	-0.599237 8.316447 0.784897
				CHANNELS 3 Yrotation Zrotation Xrotation
				JOINT Right Shoulder
				{
					OFFSET	-6.421198 0.010146 -0.332128
					CHANNELS 3 Zrotation Yrotation Xrotation
					JOINT Right Forearm
					{
						OFFSET	-10.552783 0.025574 0.125508
						CHANNELS 3 Yrotation Zrotation Xrotation
						JOINT Right Hand
						{
							OFFSET	-11.035963 0.319619 0.041520
							CHANNELS 3 Zrotation Yrotation Xrotation
							End Site
							{
								OFFSET -10.353753 0.000000 0.000000
							}
						}
					}
				}
			}
		}
	}
	JOINT Left Thigh
	{
		OFFSET	4.500466 -6.400484 -1.832696
		CHANNELS 3 Xrotation Zrotation Yrotation
		JOINT Left Shin
		{
			OFFSET	-1.359117 -18.918689 1.179887
			CHANNELS 3 Xrotation Zrotation Yrotation
			JOINT Left Foot
			{
				OFFSET	-0.652380 -17.215187 -0.312137
				CHANNELS 3 Xrotation Yrotation Zrotation
				End Site
				{
					OFFSET 0.000000 0.000000 10.353752
				}
			}
		}
	}
	JOINT Right Thigh
	{
		OFFSET	-4.500466 -6.400484 -1.832696
		CHANNELS 3 Xrotation Zrotation Yrotation
		JOINT Right Shin
		{
			OFFSET	1.359117 -18.918689 1.179887
			CHANNELS 3 Xrotation Zrotation Yrotation
			JOINT Right Foot
			{
				OFFSET	0.652380 -17.215187 -0.312137
				CHANNELS 3 Xrotation Yrotation Zrotation
				End Site
				{
					OFFSET 0.000000 0.000000 10.353752
				}
			}
		}
	}
}
MOTION
Frames:     14
Frame Time: 0.041667
-0.500638 36.378732 8.666979 20.977129 -4.904587 -1.491953 -1.388821 2.458484 -0.517571 -3.378439 2.477669 -5.625116 0.000000 0.000000 0.000000 0.190290 0.152171 -0.022892 0.285288 -0.197924 1.750511 -17.718996 1.508681 3.561118 -35.292648 -31.587084 -11.577209 -39.464417 -21.376619 8.687994 -14.651562 -19.994410 4.509060 -10.246155 -2.103853 -0.495515 54.000389 -38.790062 -17.128132 32.684856 17.452785 -5.721229 5.999907 7.140303 1.272520 -8.036149 8.040168 -1.057442 68.210732 -5.559121 -6.870448 7.289171 8.359860 -3.183224 -62.545082 -0.754570 -4.932063 35.841152 3.964367 2.073707 -21.132420 2.469608 -4.462200 
-0.714134 33.824817 9.411165 21.506638 -5.640949 -1.996799 -1.425041 2.300900 0.093987 -3.775815 2.035799 -4.168768 0.000000 0.000000 0.000000 -0.202360 0.328800 -0.671054 0.185456 -0.209541 1.436519 -13.959513 1.172762 3.303996 -44.484142 -27.854401 3.938676 -40.378189 -15.263142 7.806087 -12.960033 -18.985504 3.715552 -13.359196 -4.230855 -2.597381 44.467007 -33.395229 -12.518772 33.513977 25.323088 -5.649092 6.776772 7.156417 1.137177 -17.509647 9.808581 -3.841038 73.848602 -5.758950 -7.898795 7.541515 10.845125 -5.641755 -68.033897 -0.259870 -7.539286 62.285076 3.981326 4.903480 -31.788424 -1.431138 -7.079386 
-0.886114 33.185715 9.815190 21.604410 -5.500934 -2.164790 -2.364398 2.782119 0.745902 -3.621815 1.192617 -3.256446 0.000000 0.000000 0.000000 -0.161835 0.318765 -0.076599 -0.022377 -0.358424 0.736776 -7.964619 0.316548 1.824980 -48.381031 -22.108486 11.014008 -43.465118 -13.082748 7.221500 -9.436398 -16.751823 1.182253 -14.735152 -3.925214 -4.023147 42.582333 -25.086132 -11.121269 36.939713 28.741768 -8.519812 6.008027 7.812013 0.078901 -33.707886 11.065211 -6.964079 85.851891 -4.561408 -8.736257 3.161795 8.954911 -7.806321 -61.705978 0.231775 -7.568459 69.169838 3.590713 5.160957 -28.111343 -5.788206 -8.636758 
-0.992062 34.420624 9.801125 21.537653 -4.872137 -2.242865 -4.421340 3.092521 0.758093 -2.033034 0.559437 -1.900272 0.000000 0.000000 0.000000 -0.739939 0.276609 -0.443272 -0.776539 -0.731040 0.140614 -2.691424 -0.215046 0.318068 -45.154274 -15.640723 11.658475 -46.841316 -11.176053 6.658649 -6.149774 -14.795375 -0.650862 -13.990127 -1.214904 -5.650647 46.018345 -17.045326 -13.301240 42.096188 29.822058 -11.318011 5.099631 8.016614 -1.199977 -47.105232 11.579182 -9.027650 92.375175 -4.618384 -9.576422 -2.071572 7.819219 -7.961737 -52.259228 -0.013196 -6.302516 69.687233 3.783483 5.514954 -29.377586 -8.238683 -11.120399 
-1.050990 36.111730 9.566404 21.124123 -4.318574 -2.315781 -6.113143 3.261438 0.711567 -0.641807 -0.143698 -0.379650 0.000000 0.000000 0.000000 -1.084287 0.250828 -0.209868 -1.561708 -1.185538 0.012220 3.353568 -1.046199 -0.777254 -41.235863 -8.260781 11.885374 -48.608856 -9.428085 6.244246 -2.949366 -12.855304 -2.158376 -10.741270 0.539053 -6.561885 51.083393 -7.391071 -15.953483 47.453472 30.911438 -15.040758 4.388977 8.622850 -1.601337 -58.138954 11.948700 -10.253720 93.771957 -4.586717 -10.107706 -4.880559 7.529367 -7.078728 -41.574497 -0.053498 -5.274451 64.736427 3.646509 5.634650 -25.426760 -10.139632 -11.758402 
-0.977586 38.208639 9.152988 20.834789 -3.436600 -2.424432 -7.898133 2.041932 0.685270 -0.209017 -0.705312 0.796959 0.000000 0.000000 0.000000 -0.878602 0.026414 0.036325 -1.928762 -0.818471 0.005677 9.287605 -1.840096 -0.987857 -38.520092 -0.733883 12.856650 -47.225376 -6.512985 6.366116 -0.933209 -11.035352 -2.556708 -3.616310 1.027650 -6.144854 55.392136 2.749700 -18.402672 50.914711 32.093513 -17.231756 4.411026 9.783075 -0.825514 -64.991898 11.419950 -9.858788 93.108284 -5.290107 -9.680860 -11.651296 6.936942 -2.987761 -31.050915 -1.822697 -3.256527 55.198090 4.724654 4.616593 -15.656221 -9.559183 -2.721099 
-0.795383 40.115439 8.719323 20.658689 -2.505907 -2.350424 -9.269891 0.083568 0.499082 -0.308299 -1.234326 1.856091 0.000000 0.000000 0.000000 -0.479629 -0.172475 0.110171 -1.873299 -0.189832 -0.010898 13.739427 -2.455812 -0.761905 -37.737999 7.181457 13.484194 -44.269531 -4.365974 6.099471 0.331584 -8.958761 -1.611047 4.064872 0.748367 -4.957170 57.914574 11.892348 -19.329014 52.872959 32.773445 -19.444544 5.092561 11.022573 -0.210424 -69.744102 11.065907 -8.589185 89.077065 -6.154752 -9.144141 -16.207579 5.368136 1.113007 -23.851521 -3.350153 -2.629556 45.616421 5.159417 4.047983 -3.181762 -5.472885 0.376845 
-0.563679 40.883770 8.434183 21.005529 -1.563455 -2.022974 -9.145438 -1.346767 0.261714 -0.970113 -1.523637 2.754730 0.000000 0.000000 0.000000 -0.326438 -0.122702 0.031228 -1.423198 0.487799 -0.328516 15.298176 -2.957226 -0.675373 -38.903854 13.988939 11.149369 -40.035686 -2.655999 4.647319 0.480181 -7.543420 -1.619726 8.681375 0.541105 -4.056189 56.678013 19.245441 -20.899311 52.090683 34.658676 -18.811697 6.438845 12.528319 0.546033 -71.771988 8.954041 -6.606843 78.276825 -5.950384 -8.135532 -15.844594 3.279678 2.212277 -18.277374 -3.604321 -2.548431 39.358150 3.963889 2.877502 4.919807 -1.336435 -0.645610 
-0.391722 41.050178 8.215915 21.187477 -0.714079 -1.612230 -8.123547 -2.782813 0.042544 -1.856344 -1.609991 3.911423 0.000000 0.000000 0.000000 -0.456432 -0.220483 -0.271374 -0.872736 1.160933 -1.308716 15.064428 -2.996675 -0.589970 -41.659710 20.389086 7.660912 -34.873306 -1.693552 2.449837 0.369624 -6.845574 -1.798252 11.795646 0.037943 -3.191693 52.096691 25.003693 -21.983082 48.667171 36.700718 -17.182377 8.182502 13.996985 1.025399 -70.950203 7.030136 -5.039315 63.799644 -5.725253 -6.080646 -14.622528 2.074116 2.373655 -16.532162 -4.160141 -2.424197 48.225174 3.229642 3.306228 0.514480 -0.115790 -0.526795 
-0.206588 40.764626 8.062620 21.309647 0.201943 -1.177859 -6.762316 -4.197832 -0.140010 -2.732786 -1.714855 5.110229 0.000000 0.000000 0.000000 -0.534536 -0.066085 -0.755536 -0.596661 1.989766 -3.742272 13.611118 -2.180254 -0.626151 -45.031872 26.265991 3.340787 -30.217058 -0.536198 0.754058 -0.727811 -6.286324 -1.896197 14.079046 -0.354747 -2.164171 46.183182 29.631601 -22.820942 44.405430 37.631176 -15.051657 9.767076 15.529352 1.707078 -68.173653 4.911561 -3.317536 46.156559 -5.196576 -3.765614 -15.796626 0.876830 2.580177 -13.697781 -5.100123 -1.935576 58.104755 2.592988 3.766989 -5.368066 0.938313 -0.309117 
-0.044068 40.130226 8.028631 21.491617 0.862007 -0.682391 -5.147018 -5.031214 -0.429685 -3.387461 -1.765904 5.479733 0.000000 0.000000 0.000000 -0.460611 0.349773 -0.562423 -0.453463 2.443666 -5.174897 12.954084 -1.381671 -0.665570 -48.497852 31.100836 -0.675306 -26.926813 -0.350859 -0.869104 -2.058453 -5.985476 -2.541642 16.601721 -0.681597 -1.010003 41.801945 32.810238 -20.976402 41.972279 36.406498 -13.112349 11.055435 17.030767 2.193146 -63.591576 3.333181 -1.805034 27.261847 -4.396356 -1.865325 -15.285557 -0.481910 2.925015 -9.014236 -5.463265 -2.149125 62.860935 2.206511 3.917350 -8.823689 2.395622 0.007634 
0.130487 38.242435 8.230413 22.786530 1.458657 -0.382367 -2.961406 -4.055544 -0.306436 -4.009031 -1.990242 5.329470 0.000000 0.000000 0.000000 -0.341984 0.787603 -0.109512 -0.379019 2.669647 -4.937676 11.410592 0.104432 -0.772202 -53.223858 36.190025 -9.899524 -28.355795 -5.843315 -3.602208 -4.208107 -6.910952 -1.171524 18.420654 -0.987244 0.784085 42.178413 34.794285 -13.189913 41.497654 30.969393 -9.179533 12.279371 19.422909 2.996412 -62.851948 2.803008 -0.884896 21.863947 -4.561459 -1.637878 -9.021857 -1.475467 2.169811 -5.178834 -6.412786 -2.259399 64.263885 2.387023 4.134469 -7.699327 4.606174 0.298816 
0.329623 35.834160 8.729188 24.005751 1.710292 -0.370130 -1.246327 -1.553241 -0.260550 -4.281621 -1.967592 4.725539 0.000000 0.000000 0.000000 -0.073623 1.101291 0.289888 -0.329033 2.510989 -3.598568 10.371428 1.755491 -1.515409 -54.694149 36.682064 -17.177185 -33.510658 -15.756103 -6.869008 -6.719119 -8.148323 0.825063 16.998995 -1.221795 2.051108 46.702244 32.479286 0.439441 44.662376 20.584190 -4.708737 12.388621 21.228115 2.890909 -68.459595 2.984536 -0.626426 41.050976 -6.013715 -5.138420 -22.144459 0.431440 3.950245 -8.419670 -7.550416 -1.424576 65.858459 2.406676 3.927530 -3.503747 4.626056 2.589133 
0.794957 33.502526 9.512194 23.489946 2.479733 -0.813523 -1.122605 -0.933474 -0.578062 -4.493593 -1.225416 3.563051 0.000000 0.000000 0.000000 -0.070448 0.880393 0.440011 -0.203744 2.358268 -1.528738 13.706651 3.802678 -4.036005 -45.113831 29.330479 -12.089478 -32.373802 -23.765203 -6.664668 -6.782095 -8.096100 0.114631 12.833077 -0.961938 2.357138 47.852303 27.537123 8.558438 48.639561 10.549372 -1.142434 9.772771 20.170527 1.591069 -71.011536 1.581564 1.769423 64.368423 -7.306979 -8.673257 -32.270432 5.566069 6.872110 -22.574846 -9.325813 1.558717 77.442787 0.226981 3.952342 -1.409589 -2.018510 9.994613 
